<svg width="21" height="92" viewBox="0 0 21 92" fill="none" xmlns="http://www.w3.org/2000/svg">
<path fill-rule="evenodd" clip-rule="evenodd" d="M10.7192 77.7916C9.87486 77.7916 9.18799 78.5112 9.18799 79.3967C9.18799 80.2813 9.87486 81 10.7192 81C11.5636 81 12.2505 80.2813 12.2505 79.3967C12.2505 78.5112 11.5636 77.7916 10.7192 77.7916M10.7192 82.375C9.15124 82.375 7.87549 81.0394 7.87549 79.3967C7.87549 77.7531 9.15124 76.4166 10.7192 76.4166C12.2872 76.4166 13.563 77.7531 13.563 79.3967C13.563 81.0394 12.2872 82.375 10.7192 82.375" fill="#8C83F5"/>
<mask id="mask0_414_4134" style="mask-type:luminance" maskUnits="userSpaceOnUse" x="3" y="71" width="15" height="19">
<path fill-rule="evenodd" clip-rule="evenodd" d="M3.5 71.8333H17.9371V89.7083H3.5V71.8333Z" fill="white"/>
</mask>
<g mask="url(#mask0_414_4134)">
<path fill-rule="evenodd" clip-rule="evenodd" d="M10.7183 73.2083C7.46151 73.2083 4.81201 76.0106 4.81201 79.4536C4.81201 83.8343 9.73301 88.1023 10.7183 88.3296C11.7035 88.1014 16.6245 83.8334 16.6245 79.4536C16.6245 76.0106 13.975 73.2083 10.7183 73.2083V73.2083ZM10.7183 89.7083C9.14851 89.7083 3.49951 84.619 3.49951 79.4536C3.49951 75.2516 6.73789 71.8333 10.7183 71.8333C14.6986 71.8333 17.937 75.2516 17.937 79.4536C17.937 84.619 12.288 89.7083 10.7183 89.7083V89.7083Z" fill="#8C83F5"/>
</g>
<circle cx="10" cy="7" r="6.4" stroke="#8C83F5" stroke-width="1.2"/>
<path fill-rule="evenodd" clip-rule="evenodd" d="M10.25 5.5C9.285 5.5 8.5 6.285 8.5 7.251C8.5 8.216 9.285 9 10.25 9C11.215 9 12 8.216 12 7.251C12 6.285 11.215 5.5 10.25 5.5ZM10.25 10.5C8.458 10.5 7 9.043 7 7.251C7 5.458 8.458 4 10.25 4C12.042 4 13.5 5.458 13.5 7.251C13.5 9.043 12.042 10.5 10.25 10.5Z" fill="#8C83F5"/>
<line x1="9.9686" y1="20.0052" x2="9.49993" y2="65.0028" stroke="#8C83F5" stroke-dasharray="2 2"/>
</svg>
