<svg width="85" height="20" viewBox="0 0 85 20" fill="none" xmlns="http://www.w3.org/2000/svg">
<path d="M6 4.8C7.01333 4.8 7.9 5.00667 8.66 5.42C9.43333 5.83333 10.0333 6.42667 10.46 7.2C10.9 7.97333 11.12 8.90667 11.12 10C11.12 11.08 10.9 12.0133 10.46 12.8C10.0333 13.5733 9.43333 14.1667 8.66 14.58C7.9 14.9933 7.01333 15.2 6 15.2C5 15.2 4.11333 14.9933 3.34 14.58C2.56667 14.1667 1.96 13.5733 1.52 12.8C1.09333 12.0133 0.88 11.08 0.88 10C0.88 8.90667 1.09333 7.97333 1.52 7.2C1.96 6.42667 2.56667 5.83333 3.34 5.42C4.11333 5.00667 5 4.8 6 4.8ZM6 6.84C5.49333 6.84 5.06 6.96 4.7 7.2C4.35333 7.42667 4.08667 7.77333 3.9 8.24C3.71333 8.70667 3.62 9.29333 3.62 10C3.62 10.7067 3.71333 11.2933 3.9 11.76C4.08667 12.2267 4.35333 12.58 4.7 12.82C5.06 13.0467 5.49333 13.16 6 13.16C6.49333 13.16 6.91333 13.0467 7.26 12.82C7.62 12.58 7.89333 12.2267 8.08 11.76C8.26667 11.2933 8.36 10.7067 8.36 10C8.36 9.29333 8.26667 8.70667 8.08 8.24C7.89333 7.77333 7.62 7.42667 7.26 7.2C6.91333 6.96 6.49333 6.84 6 6.84ZM13.9127 15V5H16.3727L16.5327 8L16.1927 7.68C16.3527 7.02667 16.606 6.48667 16.9527 6.06C17.2993 5.63333 17.7193 5.32 18.2127 5.12C18.7193 4.90667 19.2727 4.8 19.8727 4.8C20.566 4.8 21.1793 4.93333 21.7127 5.2C22.2593 5.46667 22.686 5.87333 22.9927 6.42C23.3127 6.95333 23.4727 7.62667 23.4727 8.44V15H20.7327V9.22C20.7327 8.36667 20.566 7.78 20.2327 7.46C19.8993 7.12667 19.466 6.96 18.9327 6.96C18.5593 6.96 18.1927 7.05333 17.8327 7.24C17.486 7.41333 17.1993 7.7 16.9727 8.1C16.7593 8.5 16.6527 9.03333 16.6527 9.7V15H13.9127ZM36.0155 2.62L36.3355 4.58C36.2821 4.58 36.2221 4.58 36.1555 4.58C36.1021 4.56667 36.0421 4.56 35.9755 4.56C35.3621 4.56 34.9021 4.7 34.5955 4.98C34.2888 5.24667 34.1355 5.62 34.1355 6.1L33.0155 5.64C33.0155 5.10667 33.1221 4.61333 33.3355 4.16C33.5488 3.69333 33.8621 3.32 34.2755 3.04C34.7021 2.76 35.2088 2.62 35.7955 2.62C35.8221 2.62 35.8555 2.62 35.8955 2.62C35.9355 2.62 35.9755 2.62 36.0155 2.62ZM32.7355 13.12C33.8155 13.12 34.6488 13.3533 35.2355 13.82C35.8221 14.2867 36.1155 14.94 36.1155 15.78C36.1155 16.54 35.8955 17.18 35.4555 17.7C35.0155 18.2333 34.3955 18.6333 33.5955 18.9C32.8088 19.1667 31.8955 19.3 30.8555 19.3C29.1355 19.3 27.8755 19.06 27.0755 18.58C26.2888 18.1 25.8955 17.4733 25.8955 16.7C25.8955 16.1533 26.1021 15.6933 26.5155 15.32C26.9421 14.9467 27.6421 14.74 28.6155 14.7L28.5155 15.02C27.8221 14.9 27.2888 14.6733 26.9155 14.34C26.5555 13.9933 26.3755 13.52 26.3755 12.92C26.3755 12.3067 26.6088 11.8067 27.0755 11.42C27.5555 11.02 28.2021 10.7867 29.0155 10.72L30.2155 11.28H29.9355C29.3621 11.32 28.9555 11.44 28.7155 11.64C28.4888 11.8267 28.3755 12.04 28.3755 12.28C28.3755 12.56 28.4821 12.7733 28.6955 12.92C28.9221 13.0533 29.2421 13.12 29.6555 13.12H32.7355ZM30.8755 17.42C31.5688 17.42 32.1355 17.36 32.5755 17.24C33.0288 17.12 33.3621 16.9667 33.5755 16.78C33.8021 16.5933 33.9155 16.3867 33.9155 16.16C33.9155 15.9067 33.8155 15.7 33.6155 15.54C33.4155 15.3933 33.0555 15.32 32.5355 15.32H29.1555C28.8355 15.32 28.5688 15.4 28.3555 15.56C28.1555 15.72 28.0555 15.94 28.0555 16.22C28.0555 16.5933 28.3021 16.8867 28.7955 17.1C29.3021 17.3133 29.9955 17.42 30.8755 17.42ZM30.8955 4.8C31.8288 4.8 32.6355 4.94 33.3155 5.22C34.0088 5.48667 34.5355 5.87333 34.8955 6.38C35.2688 6.88667 35.4555 7.49333 35.4555 8.2C35.4555 8.89333 35.2688 9.49333 34.8955 10C34.5355 10.5067 34.0088 10.9 33.3155 11.18C32.6355 11.4467 31.8288 11.58 30.8955 11.58C29.4155 11.58 28.2821 11.28 27.4955 10.68C26.7221 10.0667 26.3355 9.24 26.3355 8.2C26.3355 7.49333 26.5155 6.88667 26.8755 6.38C27.2488 5.87333 27.7755 5.48667 28.4555 5.22C29.1355 4.94 29.9488 4.8 30.8955 4.8ZM30.8955 6.52C30.3621 6.52 29.9221 6.66667 29.5755 6.96C29.2288 7.25333 29.0555 7.66 29.0555 8.18C29.0555 8.7 29.2288 9.11333 29.5755 9.42C29.9221 9.71333 30.3621 9.86 30.8955 9.86C31.4288 9.86 31.8621 9.71333 32.1955 9.42C32.5421 9.11333 32.7155 8.7 32.7155 8.18C32.7155 7.66 32.5421 7.25333 32.1955 6.96C31.8621 6.66667 31.4288 6.52 30.8955 6.52ZM48.452 5L43.832 9.82L43.292 10.08L40.292 13.3L40.252 10.38L45.332 5H48.452ZM41.012 0.619999V15H38.272V0.619999H41.012ZM44.212 8.18L48.692 15H45.592L42.332 9.78L44.212 8.18ZM54.8945 4.8C55.9079 4.8 56.7945 5.00667 57.5545 5.42C58.3279 5.83333 58.9279 6.42667 59.3545 7.2C59.7945 7.97333 60.0145 8.90667 60.0145 10C60.0145 11.08 59.7945 12.0133 59.3545 12.8C58.9279 13.5733 58.3279 14.1667 57.5545 14.58C56.7945 14.9933 55.9079 15.2 54.8945 15.2C53.8945 15.2 53.0079 14.9933 52.2345 14.58C51.4612 14.1667 50.8545 13.5733 50.4145 12.8C49.9879 12.0133 49.7745 11.08 49.7745 10C49.7745 8.90667 49.9879 7.97333 50.4145 7.2C50.8545 6.42667 51.4612 5.83333 52.2345 5.42C53.0079 5.00667 53.8945 4.8 54.8945 4.8ZM54.8945 6.84C54.3879 6.84 53.9545 6.96 53.5945 7.2C53.2479 7.42667 52.9812 7.77333 52.7945 8.24C52.6079 8.70667 52.5145 9.29333 52.5145 10C52.5145 10.7067 52.6079 11.2933 52.7945 11.76C52.9812 12.2267 53.2479 12.58 53.5945 12.82C53.9545 13.0467 54.3879 13.16 54.8945 13.16C55.3879 13.16 55.8079 13.0467 56.1545 12.82C56.5145 12.58 56.7879 12.2267 56.9745 11.76C57.1612 11.2933 57.2545 10.7067 57.2545 10C57.2545 9.29333 57.1612 8.70667 56.9745 8.24C56.7879 7.77333 56.5145 7.42667 56.1545 7.2C55.8079 6.96 55.3879 6.84 54.8945 6.84ZM66.8072 15.2C65.7939 15.2 64.8672 15.02 64.0272 14.66C63.2005 14.3 62.5272 13.7933 62.0072 13.14L63.5872 11.54C63.9072 12.02 64.3339 12.4133 64.8672 12.72C65.4005 13.0267 66.0339 13.18 66.7672 13.18C67.2872 13.18 67.7005 13.1067 68.0072 12.96C68.3272 12.8 68.4872 12.5533 68.4872 12.22C68.4872 12.0067 68.4139 11.8267 68.2672 11.68C68.1205 11.52 67.8272 11.3933 67.3872 11.3L65.6272 10.94C64.4672 10.7 63.6405 10.34 63.1472 9.86C62.6672 9.36667 62.4272 8.73333 62.4272 7.96C62.4272 7.41333 62.5872 6.9 62.9072 6.42C63.2405 5.94 63.7339 5.55333 64.3872 5.26C65.0405 4.95333 65.8539 4.8 66.8272 4.8C67.8272 4.8 68.6939 4.96 69.4272 5.28C70.1739 5.58667 70.7605 6.04667 71.1872 6.66L69.5472 8.26C69.2539 7.79333 68.8672 7.44 68.3872 7.2C67.9205 6.94667 67.4272 6.82 66.9072 6.82C66.5339 6.82 66.2139 6.86 65.9472 6.94C65.6805 7.02 65.4805 7.13333 65.3472 7.28C65.2139 7.41333 65.1472 7.58667 65.1472 7.8C65.1472 8.01333 65.2405 8.2 65.4272 8.36C65.6139 8.50667 65.9539 8.63333 66.4472 8.74L68.4872 9.16C69.4739 9.36 70.1805 9.7 70.6072 10.18C71.0339 10.6467 71.2472 11.2133 71.2472 11.88C71.2472 12.52 71.0739 13.0933 70.7272 13.6C70.3939 14.0933 69.8939 14.4867 69.2272 14.78C68.5739 15.06 67.7672 15.2 66.8072 15.2Z" fill="white"/>
<path d="M85 12.5C85 14.433 83.433 16 81.5 16C79.567 16 78 14.433 78 12.5C78 10.567 79.567 9 81.5 9C83.433 9 85 10.567 85 12.5Z" fill="#8C83F5"/>
</svg>
