<svg width="16" height="72" viewBox="0 0 16 72" fill="none" xmlns="http://www.w3.org/2000/svg">
<path fill-rule="evenodd" clip-rule="evenodd" d="M7.97323 60.7957C7.34516 60.7957 6.83424 61.3309 6.83424 61.9896C6.83424 62.6476 7.34516 63.1821 7.97323 63.1821C8.6013 63.1821 9.11221 62.6476 9.11221 61.9896C9.11221 61.3309 8.6013 60.7957 7.97323 60.7957M7.97323 64.2049C6.80691 64.2049 5.85797 63.2114 5.85797 61.9896C5.85797 60.767 6.80691 59.7729 7.97323 59.7729C9.13955 59.7729 10.0885 60.767 10.0885 61.9896C10.0885 63.2114 9.13955 64.2049 7.97323 64.2049" fill="white"/>
<mask id="mask0_430_4134" style="mask-type:luminance" maskUnits="userSpaceOnUse" x="2" y="56" width="12" height="14">
<path fill-rule="evenodd" clip-rule="evenodd" d="M2.60339 56.3636H13.3421V69.6596H2.60339V56.3636Z" fill="white"/>
</mask>
<g mask="url(#mask0_430_4134)">
<path fill-rule="evenodd" clip-rule="evenodd" d="M7.97255 57.3864C5.55009 57.3864 3.57932 59.4708 3.57932 62.0318C3.57932 65.2903 7.2397 68.465 7.97255 68.6341C8.70541 68.4643 12.3658 65.2897 12.3658 62.0318C12.3658 59.4708 10.395 57.3864 7.97255 57.3864V57.3864ZM7.97256 69.6596C6.80494 69.6596 2.60306 65.874 2.60306 62.0318C2.60306 58.9062 5.01185 56.3636 7.97256 56.3636C10.9333 56.3636 13.3421 58.9062 13.3421 62.0318C13.3421 65.874 9.14018 69.6596 7.97256 69.6596V69.6596Z" fill="white"/>
</g>
<circle cx="8.20679" cy="5.20679" r="4.76049" stroke="white" stroke-width="0.892593"/>
<path fill-rule="evenodd" clip-rule="evenodd" d="M8.39284 4.09109C7.67504 4.09109 7.09114 4.675 7.09114 5.39354C7.09114 6.11133 7.67504 6.69449 8.39284 6.69449C9.11063 6.69449 9.69453 6.11133 9.69453 5.39354C9.69453 4.675 9.11063 4.09109 8.39284 4.09109ZM8.39281 7.81022C7.05987 7.81022 5.97537 6.72646 5.97537 5.39352C5.97537 4.05984 7.05987 2.97534 8.39281 2.97534C9.72575 2.97534 10.8102 4.05984 10.8102 5.39352C10.8102 6.72646 9.72575 7.81022 8.39281 7.81022Z" fill="white"/>
<line x1="8.37191" y1="14.0011" x2="8.26534" y2="51.0014" stroke="white" stroke-width="0.743827" stroke-dasharray="1.49 1.49"/>
</svg>
